<svg width="34" height="28" viewBox="0 0 34 28" fill="none" xmlns="http://www.w3.org/2000/svg">
<path d="M30.2543 7.19989C30.2746 7.49375 30.2746 7.7876 30.2746 8.08417C30.2746 17.1207 23.3953 27.5425 10.8163 27.5425V27.5371C7.10037 27.5425 3.46167 26.4781 0.333496 24.4712C0.873817 24.5362 1.41685 24.5687 1.96123 24.5701C5.04065 24.5728 8.03205 23.5395 10.4547 21.6369C7.5283 21.5814 4.96211 19.6733 4.06564 16.8877C5.09076 17.0855 6.14702 17.0448 7.15319 16.7699C3.96272 16.1253 1.66737 13.3222 1.66737 10.0667C1.66737 10.0369 1.66737 10.0085 1.66737 9.98003C2.61801 10.5095 3.6824 10.8034 4.77117 10.8359C1.76623 8.82762 0.839962 4.83006 2.65457 1.70459C6.12671 5.97706 11.2496 8.57439 16.749 8.84929C16.1978 6.47404 16.9507 3.98505 18.7274 2.31533C21.4818 -0.273875 25.8139 -0.141164 28.4031 2.6119C29.9347 2.30992 31.4026 1.74793 32.746 0.951665C32.2355 2.53471 31.167 3.87942 29.7397 4.73391C31.0952 4.57412 32.4196 4.21119 33.6668 3.65733C32.7487 5.03319 31.5922 6.23164 30.2543 7.19989Z" fill="white"/>
</svg>
