<svg width="34" height="26" viewBox="0 0 34 26" fill="none" xmlns="http://www.w3.org/2000/svg">
<path d="M28.5516 2.403C26.427 1.42817 24.1487 0.709953 21.7667 0.298601C21.7233 0.290662 21.68 0.310502 21.6576 0.350182C21.3646 0.871314 21.0401 1.55117 20.8128 2.08554C18.2507 1.70197 15.7018 1.70197 13.1923 2.08554C12.9649 1.53929 12.6286 0.871314 12.3343 0.350182C12.3119 0.311825 12.2686 0.291986 12.2252 0.298601C9.84448 0.708638 7.56622 1.42685 5.44035 2.403C5.42194 2.41094 5.40617 2.42418 5.3957 2.44136C1.07432 8.89741 -0.10949 15.1948 0.471246 21.4141C0.473874 21.4445 0.490954 21.4736 0.514604 21.4921C3.36573 23.5859 6.12753 24.857 8.83805 25.6996C8.88143 25.7128 8.92739 25.6969 8.95499 25.6612C9.59617 24.7856 10.1677 23.8624 10.6578 22.8915C10.6867 22.8346 10.6591 22.7672 10.6 22.7447C9.6934 22.4008 8.83016 21.9815 7.99978 21.5053C7.9341 21.467 7.92884 21.373 7.98927 21.3281C8.16401 21.1971 8.3388 21.0609 8.50565 20.9233C8.53584 20.8982 8.57791 20.8929 8.6134 20.9088C14.0686 23.3994 19.9745 23.3994 25.3654 20.9088C25.4009 20.8916 25.4429 20.8969 25.4744 20.922C25.6413 21.0596 25.8161 21.1971 25.9921 21.3281C26.0525 21.373 26.0486 21.467 25.9829 21.5053C25.1525 21.9907 24.2893 22.4008 23.3814 22.7434C23.3223 22.7659 23.296 22.8346 23.3249 22.8915C23.8255 23.861 24.3971 24.7843 25.0264 25.6599C25.0527 25.6969 25.1 25.7128 25.1433 25.6996C27.867 24.857 30.6288 23.5859 33.4799 21.4921C33.5049 21.4736 33.5207 21.4458 33.5233 21.4154C34.2183 14.2252 32.3592 7.97948 28.5949 2.44267C28.5857 2.42418 28.57 2.41094 28.5516 2.403ZM11.4724 17.6272C9.83002 17.6272 8.47673 16.1193 8.47673 14.2676C8.47673 12.4158 9.80377 10.9079 11.4724 10.9079C13.1541 10.9079 14.4943 12.429 14.468 14.2676C14.468 16.1193 13.141 17.6272 11.4724 17.6272ZM22.5484 17.6272C20.9061 17.6272 19.5528 16.1193 19.5528 14.2676C19.5528 12.4158 20.8798 10.9079 22.5484 10.9079C24.2302 10.9079 25.5703 12.429 25.5441 14.2676C25.5441 16.1193 24.2302 17.6272 22.5484 17.6272Z" fill="white"/>
</svg>
